<svg width="165" height="95" fill="none" xmlns="http://www.w3.org/2000/svg"><path d="M21.661 10.975h-6.199c-1.494 0-.523.678.075 1.357l4.78 5.341c1.195 1.272 1.494 1.696 2.017 2.713.747 1.442 1.045 2.883 1.045 4.41 0 1.95-.448 3.645-1.419 5.002-1.27 1.865-3.286 2.798-6.05 2.713l-14.64-.085v-11.7l7.17-.085h.225c.896 0 1.942.508-1.942-3.392-2.988-3.052-4.482-4.324-5.677-6.274-.075-.17-.15-.255-.224-.424A6.25 6.25 0 0 1 0 7.414c0-.933.15-1.78.448-2.544.15-.424.299-.763.523-1.102.598-.933 1.494-1.696 2.39-2.205C5.378.376 9.785.292 12.175.376l9.412-.084.074 3.052v7.63z" fill="#000"/><path fill-rule="evenodd" clip-rule="evenodd" d="M39.738 11.144h6.2v9.836h-6.2v-9.836zM34.21.8h17.554c3.51 0 6.349 3.477 6.349 7.716v15.686c0 4.24-2.839 7.716-6.35 7.716H34.21c-3.51 0-6.349-3.477-6.349-7.716V8.432C27.861 4.276 30.7.8 34.211.8z" fill="#000"/><path d="M63.64 16.656l.074-16.11h12.25l-.075 18.738h5.005v-.17l.074-.084v-2.205l.075-16.11L93.368.631l-.075 16.025v1.694c-.15 4.664.597 5.172-2.839 9.158-1.419 1.61-3.137 2.713-5.228 3.476-2.092.763-4.183 1.187-6.424 1.187h-1.195c-2.988-.17-4.407-.594-6.2-1.272-2.016-.848-3.734-1.865-5.004-3.391-3.212-3.731-2.615-4.494-2.839-9.158v-.848c.075-.339.075-.593.075-.847z" fill="#000"/><path fill-rule="evenodd" clip-rule="evenodd" d="M99.269 31.833h11.354V18.945l4.556 7.716c.149.17.822 1.187 1.27 1.95.074.17.149.424.299.593 0 0 0 .085.074.085v.085s0 .085.075.085c.822 1.356 2.017 2.374 3.361 2.883 4.034 1.526 9.113-.17 9.412-3.9.074-.849.074-1.697 0-2.46V.716h-11.503v13.99l-5.079-9.073c-.972-1.78-1.868-3.985-4.109-5.002-3.884-1.696-9.112.17-9.411 3.9v.085l-.299 27.217zm47.281-20.349h6.349v9.835h-6.349v-9.835zM140.051.716h19.346c2.764 0 5.079 2.713 5.079 6.104v18.823c0 3.392-2.315 6.105-5.079 6.105h-24.425V.716h5.079zM25.246 68.376l-16.956.085h-.448c-3.735-.339-6.648-4.07-6.648-8.563V42.261c0-.085 0-.085.075-.085h14.043c.074 0 .074.085.074.085v15.602c.15.763.747 1.356 1.42 1.356l8.365.085.075 9.072z" fill="#000"/><path d="M45.938 42.007H31.371v26.624h14.566V42.007z" fill="#000"/><path fill-rule="evenodd" clip-rule="evenodd" d="M81.716 68.8H58.56c-3.437 0-6.275-3.391-6.275-7.546V49.47c0-4.155 2.838-7.547 6.274-7.547h23.156c3.436 0 6.274 3.392 6.274 7.547v1.187H66.105v8.563h7.544v-5.341h14.416v7.291c-.075 4.24-2.913 7.631-6.35 7.631zm33.014-26.538h13.818v26.623H114.73V58.287h-6.573V68.8H94.338V42.177h13.819v9.242h6.573v-9.157zm27.862 26.708h13.594V49.808h8.142V42.43h-30.55v7.377h8.814V68.97zM4.108 94.576h6.05v-12.04h3.66v-4.663H.224v4.663h3.884v12.04zm19.719-16.788h-3.66c-2.24 0-4.033 2.204-4.033 4.918v6.783c0 2.713 1.793 5.002 4.033 5.087l3.66.085h4.258v-.34l.075-4.07h-2.615c-1.12 0-2.091-.762-2.614-1.78h5.08v-4.24h-5.155c.523-1.186 1.494-2.034 2.69-2.034h2.39v-4.324h-3.511c-.224-.085-.374-.085-.598-.085zm14.865-.085h-4.258c-2.016 0-3.66 1.95-3.66 4.41v8.054c0 2.459 1.644 4.409 3.66 4.409h8.067v-5.85h-5.079v-5.088h5.08v-5.85H39.29c-.224 0-.374-.085-.598-.085zm16.208.679h6.424V94.66H54.9v-6.444h-2.988v6.359h-6.424v-16.28h6.424v5.681H54.9V78.38zm9.635 16.194h5.901v-6.698l2.39 3.985c.075.085.448.593.673 1.017.074.085.074.17.149.255a4.173 4.173 0 0 0 1.793 1.526c2.091.763 4.78-.085 4.855-2.035V78.212H74.32v7.292l-2.614-4.749c-.523-.932-.971-2.12-2.092-2.543-2.016-.848-4.78.085-4.855 2.035l-.224 14.329zm24.651-10.683h3.286v5.172h-3.286v-5.172zm-2.914-5.427h9.262c1.868 0 3.362 1.78 3.362 4.07v8.31c0 2.204-1.494 4.07-3.362 4.07h-9.262c-1.867 0-3.36-1.781-3.36-4.07v-8.31c0-2.29 1.493-4.07 3.36-4.07zm34.135 5.427h3.287v5.172h-3.287v-5.172zm-2.913-5.427h9.262c1.868 0 3.361 1.78 3.361 4.07v8.31c0 2.204-1.493 4.07-3.361 4.07h-9.262c-1.867 0-3.361-1.781-3.361-4.07v-8.31c0-2.29 1.494-4.07 3.361-4.07zM145.505 95h-10.233c-1.494 0-2.764-2.12-2.764-4.663v-7.292c0-2.544 1.27-4.663 2.764-4.663h10.233c1.494 0 2.763 2.12 2.763 4.663v.763h-9.71v5.342h3.361v-3.307h6.349v4.494c0 2.543-1.269 4.663-2.763 4.663zm-33.315-.17h-7.619c-1.643-.17-2.913-2.543-2.913-5.341V78.38h6.125v10.684h4.258l.149 5.765zM165 78.551h-6.05l-1.644 5.087-1.718-5.087h-6.05l4.183 9.666V95h7.096v-6.868l4.183-9.58z" fill="#000"/></svg>