<svg xmlns="http://www.w3.org/2000/svg" width="165" height="95"><path fill="#FFF" d="M21.661 10.975h-6.199c-1.494 0-.523.678.075 1.357l4.78 5.342c1.195 1.272 1.494 1.696 2.017 2.713.747 1.441 1.046 2.883 1.046 4.409 0 1.95-.448 3.646-1.419 5.003-1.27 1.865-3.287 2.798-6.05 2.713L1.27 32.426v-11.7l7.171-.085h.224c.896 0 1.942.509-1.942-3.391-2.988-3.052-4.482-4.324-5.677-6.274-.075-.17-.149-.254-.224-.424A6.256 6.256 0 0 1 0 7.414c0-.933.149-1.781.448-2.544.149-.424.299-.763.523-1.102.598-.933 1.494-1.696 2.39-2.204C5.378.377 9.785.292 12.175.377l9.411-.085.075 3.052v7.631zM51.764.673H34.21c-3.511 0-6.349 3.476-6.349 7.631v15.771c0 4.239 2.838 7.716 6.349 7.716h17.553c3.511 0 6.349-3.476 6.349-7.716V8.389c.001-4.24-2.838-7.716-6.348-7.716zm-5.827 20.18h-6.2v-9.836h6.2v9.836zm17.702-4.197l.075-16.11h12.25l-.075 18.738h5.005v-.17l.075-.085v-2.204l.075-16.11L93.369.63l-.075 16.025v1.696c-.149 4.663.598 5.172-2.838 9.157-1.419 1.611-3.137 2.713-5.229 3.476-2.091.763-4.183 1.187-6.424 1.187h-1.194c-2.988-.17-4.407-.594-6.2-1.272-2.017-.848-3.735-1.865-5.005-3.392-3.212-3.731-2.614-4.494-2.838-9.157v-.848c.073-.338.073-.592.073-.846zm35.63 15.177h11.354V18.945l4.556 7.716c.149.17.822 1.187 1.27 1.95.074.17.149.424.299.594 0 0 0 .085.074.085v.085s0 .085.075.085c.822 1.357 2.017 2.374 3.361 2.883 4.034 1.526 9.113-.17 9.412-3.9.074-.848.074-1.696 0-2.459V.716h-11.503v13.99l-5.079-9.072c-.972-1.781-1.868-3.985-4.109-5.003-3.884-1.696-9.112.17-9.411 3.9v.085l-.299 27.217zM159.397.716h-24.425v31.032h24.425c2.764 0 5.079-2.713 5.079-6.105V6.82c0-3.391-2.315-6.104-5.079-6.104zm-6.498 20.603h-6.349v-9.836h6.349v9.836zM25.246 68.376l-16.956.085h-.448c-3.735-.339-6.648-4.07-6.648-8.564V42.261c0-.085 0-.085.075-.085h14.042c.075 0 .075.085.075.085v15.601c.149.763.747 1.357 1.419 1.357l8.366.085.075 9.072zm20.692-26.369H31.372V68.63h14.565V42.007zM81.716 68.8H58.561c-3.436 0-6.274-3.392-6.274-7.546V49.469c0-4.155 2.838-7.546 6.274-7.546h23.155c3.436 0 6.274 3.391 6.274 7.546v1.187H66.105v8.564h7.544v-5.342h14.415v7.292c-.074 4.239-2.912 7.63-6.348 7.63zm33.014-26.538h13.818v26.624H114.73V58.287h-6.573V68.8H94.338V42.177h13.819v9.242h6.573v-9.157zm27.862 26.708h13.594V49.808h8.142v-7.377h-30.55v7.377h8.814V68.97zM4.108 94.576h6.05v-12.04h3.66v-4.663H.224v4.663h3.884v12.04zm19.719-16.788h-3.66c-2.241 0-4.033 2.204-4.033 4.918v6.783c0 2.713 1.793 5.003 4.033 5.087l3.66.085h4.257v-.339l.075-4.07h-2.614c-1.12 0-2.091-.763-2.614-1.781h5.079v-4.239h-5.154c.523-1.187 1.494-2.035 2.689-2.035h2.39v-4.324h-3.511c-.223-.085-.373-.085-.597-.085zm14.865-.085h-4.258c-2.017 0-3.66 1.95-3.66 4.409v8.055c0 2.459 1.643 4.409 3.66 4.409h8.067v-5.85h-5.079v-5.087h5.079v-5.85H39.29c-.225-.001-.374-.086-.598-.086zm16.208.679h6.424v16.279H54.9v-6.444h-2.988v6.359h-6.424V78.297h6.424v5.681H54.9v-5.596zm9.635 16.194h5.901v-6.698l2.39 3.985c.075.085.448.593.672 1.017.075.085.075.17.149.254a4.173 4.173 0 0 0 1.793 1.526c2.091.763 4.78-.085 4.855-2.035V78.212H74.32v7.292l-2.614-4.748c-.523-.933-.971-2.12-2.091-2.544-2.017-.848-4.781.085-4.855 2.035l-.225 14.329zm30.999-16.11h-9.262c-1.867 0-3.361 1.781-3.361 4.07v8.309c0 2.289 1.494 4.07 3.361 4.07h9.262c1.867 0 3.361-1.865 3.361-4.07v-8.309c.001-2.289-1.493-4.07-3.361-4.07zm-3.062 10.599h-3.286v-5.172h3.286v5.172zm34.284-10.599h-9.262c-1.867 0-3.361 1.781-3.361 4.07v8.309c0 2.289 1.494 4.07 3.361 4.07h9.262c1.868 0 3.361-1.865 3.361-4.07v-8.309c0-2.289-1.493-4.07-3.361-4.07zm-3.062 10.599h-3.287v-5.172h3.287v5.172zM145.505 95h-10.233c-1.494 0-2.764-2.12-2.764-4.663v-7.292c0-2.544 1.27-4.663 2.764-4.663h10.233c1.494 0 2.763 2.12 2.763 4.663v.763h-9.71v5.342h3.361v-3.307h6.349v4.494c0 2.543-1.269 4.663-2.763 4.663zm-33.315-.17h-7.619c-1.643-.17-2.913-2.544-2.913-5.342V78.38h6.125v10.684h4.258l.149 5.766zM165 78.551h-6.05l-1.644 5.087-1.718-5.087h-6.05l4.183 9.666V95h7.096v-6.868L165 78.551z"/></svg>