<?xml version="1.0" encoding="utf-8"?>
<!-- Generator: Adobe Illustrator 17.0.0, SVG Export Plug-In . SVG Version: 6.00 Build 0)  -->
<!DOCTYPE svg PUBLIC "-//W3C//DTD SVG 1.1//EN" "http://www.w3.org/Graphics/SVG/1.1/DTD/svg11.dtd">
<svg version="1.1" id="Слой_1" xmlns="http://www.w3.org/2000/svg" xmlns:xlink="http://www.w3.org/1999/xlink" x="0px" y="0px"
	 width="165px" height="95px" viewBox="0 0 165 95" enable-background="new 0 0 165 95" xml:space="preserve">
<path fill="#FFFFFF" d="M21.661,10.975h-3.735h-1.12c-0.598,0-1.046,0-1.344,0c-1.494,0-0.523,0.678,0.075,1.357l4.78,5.342
	c1.195,1.272,1.494,1.696,2.017,2.713c0.747,1.441,1.046,2.883,1.046,4.409c0,1.95-0.448,3.646-1.419,5.003
	c-1.27,1.865-3.287,2.798-6.05,2.713L1.27,32.426V20.726l7.171-0.085h0.224c0.896,0,1.942,0.509-1.942-3.391
	c-2.988-3.052-4.482-4.324-5.677-6.274c-0.075-0.17-0.149-0.254-0.224-0.424C0.299,9.618,0,8.601,0,7.414
	C0,6.481,0.149,5.633,0.448,4.87c0.149-0.424,0.299-0.763,0.523-1.102c0.598-0.933,1.494-1.696,2.39-2.204
	c2.017-1.187,6.424-1.272,8.814-1.187l9.411-0.085l0.075,3.052V10.975z"/>
<path fill="#FFFFFF" d="M51.764,0.673H34.21c-3.511,0-6.349,3.476-6.349,7.631v15.771c0,4.239,2.838,7.716,6.349,7.716h17.553
	c3.511,0,6.349-3.476,6.349-7.716V8.389C58.113,4.149,55.274,0.673,51.764,0.673z M45.937,20.853h-6.2v-9.836h6.2V20.853z"/>
<path fill="#FFFFFF" d="M63.639,16.656l0.075-16.11h12.25l-0.075,18.738h5.005v-0.17l0.075-0.085c0,0,0,0,0-0.085
	c0,0,0-0.17,0-0.254c0-0.594,0-1.187,0-1.865l0.075-16.11l12.325-0.085l-0.075,16.025c0,0.254,0,0.509,0,0.848
	c0,0.254,0,0.594,0,0.848c-0.149,4.663,0.598,5.172-2.838,9.157c-1.419,1.611-3.137,2.713-5.229,3.476
	c-2.091,0.763-4.183,1.187-6.424,1.187c-0.075,0-0.149,0-0.224,0c-0.075,0-0.149,0-0.224,0c-0.149,0-0.224,0-0.373,0
	s-0.224,0-0.373,0c-2.988-0.17-4.407-0.594-6.2-1.272c-2.017-0.848-3.735-1.865-5.005-3.392c-3.212-3.731-2.614-4.494-2.838-9.157
	c0-0.254,0-0.509,0-0.848C63.639,17.164,63.639,16.91,63.639,16.656z"/>
<path fill="#FFFFFF" d="M99.269,31.833h11.354V18.945l4.556,7.716c0.149,0.17,0.822,1.187,1.27,1.95
	c0.074,0.17,0.149,0.424,0.299,0.594c0,0,0,0.085,0.074,0.085v0.085c0,0,0,0.085,0.075,0.085c0.822,1.357,2.017,2.374,3.361,2.883
	c4.034,1.526,9.113-0.17,9.412-3.9c0.074-0.848,0.074-1.696,0-2.459V0.716h-11.503v13.99l-5.079-9.072
	c-0.972-1.781-1.868-3.985-4.109-5.003c-3.884-1.696-9.112,0.17-9.411,3.9v0.085L99.269,31.833z"/>
<path fill="#FFFFFF" d="M159.397,0.716h-18.3h-1.046h-5.079V6.82v18.823v6.105h5.079h1.046h18.3c2.764,0,5.079-2.713,5.079-6.105
	V6.82C164.476,3.429,162.161,0.716,159.397,0.716z M152.899,21.319h-6.349v-9.836h6.349V21.319z"/>
<path fill="#FFFFFF" d="M25.246,68.376L8.29,68.461H7.842c-3.735-0.339-6.648-4.07-6.648-8.564v-4.663V50.74v-8.479
	c0-0.085,0-0.085,0.075-0.085H8.29h7.021c0.075,0,0.075,0.085,0.075,0.085v8.479v4.494v2.628c0.149,0.763,0.747,1.357,1.419,1.357
	l8.366,0.085L25.246,68.376z"/>
<path fill="#FFFFFF" d="M45.938,42.007H31.372v26.623h14.565V42.007z"/>
<path fill="#FFFFFF" d="M81.716,68.8H58.561c-3.436,0-6.274-3.392-6.274-7.546V49.469c0-4.155,2.838-7.546,6.274-7.546h23.155
	c3.436,0,6.274,3.391,6.274,7.546v1.187h-0.523H86.72H73.649h-7.544v3.222v5.342h7.544v-5.342H86.72h1.344v7.292
	C87.99,65.409,85.152,68.8,81.716,68.8z"/>
<path fill="#FFFFFF" d="M114.73,42.262h13.818v26.624H114.73V58.287h-6.573V68.8H94.338V42.177h13.819v9.242h6.573V42.262z"/>
<path fill="#FFFFFF" d="M142.592,68.97h13.594V49.808h8.142v-7.377h-8.142h-13.594h-8.814v7.377h8.814V68.97z"/>
<path fill="#FFFFFF" d="M4.108,94.576h6.05v-12.04h3.66v-4.663h-3.66h-6.05H0.224v4.663h3.884V94.576z"/>
<path fill="#FFFFFF" d="M23.827,77.788h-3.66c-2.241,0-4.033,2.204-4.033,4.918v6.783c0,2.713,1.793,5.003,4.033,5.087l3.66,0.085
	c0.224,0,0.747,0,1.12,0h3.137c0,0,0-0.254,0-0.339l0.075-4.07h-2.614c-1.12,0-2.091-0.763-2.614-1.781h5.079v-4.239h-5.154
	c0.523-1.187,1.494-2.035,2.689-2.035h2.39v-4.324h-3.511C24.201,77.788,24.051,77.788,23.827,77.788z"/>
<path fill="#FFFFFF" d="M38.692,77.703h-4.258c-2.017,0-3.66,1.95-3.66,4.409v8.055c0,2.459,1.643,4.409,3.66,4.409h4.258
	c0.075,0,0.149,0,0.224,0h3.585v-5.85h-5.079v-5.087h5.079v-5.85H39.29C39.065,77.788,38.916,77.703,38.692,77.703z"/>
<path fill="#FFFFFF" d="M54.9,78.382h6.424v16.279H54.9v-6.444h-2.988v6.359h-6.424V78.297h6.424v5.681H54.9V78.382z"/>
<path fill="#FFFFFF" d="M64.535,94.576h5.901v-6.698l2.39,3.985c0.075,0.085,0.448,0.593,0.672,1.017
	c0.075,0.085,0.075,0.17,0.149,0.254c0.448,0.678,1.046,1.187,1.793,1.526c2.091,0.763,4.78-0.085,4.855-2.035
	c0-0.424,0-0.848,0-1.272V78.212H74.32v7.292l-2.614-4.748c-0.523-0.933-0.971-2.12-2.091-2.544
	c-2.017-0.848-4.781,0.085-4.855,2.035L64.535,94.576z"/>
<path fill="#FFFFFF" d="M95.534,78.466h-9.262c-1.867,0-3.361,1.781-3.361,4.07v8.309c0,2.289,1.494,4.07,3.361,4.07h9.262
	c1.867,0,3.361-1.865,3.361-4.07v-8.309C98.896,80.247,97.402,78.466,95.534,78.466z M92.472,89.065h-3.286v-5.172h3.286V89.065z"/>
<path fill="#FFFFFF" d="M126.756,78.466h-9.262c-1.867,0-3.361,1.781-3.361,4.07v8.309c0,2.289,1.494,4.07,3.361,4.07h9.262
	c1.868,0,3.361-1.865,3.361-4.07v-8.309C130.117,80.247,128.624,78.466,126.756,78.466z M123.694,89.065h-3.287v-5.172h3.287V89.065
	z"/>
<path fill="#FFFFFF" d="M145.505,95h-10.233c-1.494,0-2.764-2.12-2.764-4.663v-7.292c0-2.544,1.27-4.663,2.764-4.663h10.233
	c1.494,0,2.763,2.12,2.763,4.663v0.763h-0.224h-0.373h-5.752h-3.361v2.035v3.307h3.361v-3.307h5.752h0.597v4.494
	C148.268,92.88,146.999,95,145.505,95z"/>
<path fill="#FFFFFF" d="M112.19,94.83h-7.395h-0.224c-1.643-0.17-2.913-2.544-2.913-5.342v-2.883v-2.798v-5.342v-0.085h3.063h3.062
	c0,0,0,0,0,0.085v5.342v2.798v2.459h4.258L112.19,94.83z"/>
<path fill="#FFFFFF" d="M165,78.551h-6.05l-1.644,5.087l-1.718-5.087h-1.867h-4.183l4.183,9.666V95h7.096v-6.868L165,78.551z"/>
</svg>
