<svg width="165" height="95" viewBox="0 0 165 95" fill="none" xmlns="http://www.w3.org/2000/svg">
<path d="M21.6614 10.9748H17.9267H16.8063C16.2087 10.9748 15.7605 10.9748 15.4618 10.9748C13.9679 10.9748 14.9389 11.6531 15.5365 12.3315L20.3169 17.6731C21.512 18.9449 21.8108 19.3689 22.3337 20.3863C23.0806 21.8277 23.3794 23.2691 23.3794 24.7953C23.3794 26.7454 22.9312 28.4412 21.9602 29.7978C20.6904 31.6632 18.6736 32.5958 15.9099 32.511L1.26981 32.4263V20.7255L8.44048 20.6407H8.66456C9.5609 20.6407 10.6066 21.1494 6.7225 17.2492C3.73472 14.1968 2.24084 12.925 1.04572 10.9748C0.971029 10.8053 0.896334 10.7205 0.821639 10.5509C0.298778 9.61823 -5.69874e-07 8.60077 -5.69874e-07 7.41374C-5.69874e-07 6.48107 0.149389 5.63319 0.448167 4.8701C0.597556 4.44615 0.746945 4.107 0.971029 3.76785C1.56858 2.83518 2.46492 2.07209 3.36125 1.56336C5.378 0.376323 9.78498 0.291535 12.1752 0.376323L21.5867 0.291534L21.6614 3.34391V10.9748Z" fill="black"/>
<path fill-rule="evenodd" clip-rule="evenodd" d="M39.7378 11.1444H45.9374V20.9799H39.7378V11.1444ZM34.2104 0.800293H51.7636C55.2742 0.800293 58.1126 4.27661 58.1126 8.51602V24.2018C58.1126 28.4412 55.2742 31.9176 51.7636 31.9176H34.2104C30.6997 31.9176 27.8613 28.4412 27.8613 24.2018V8.43123C27.8613 4.27661 30.6997 0.800293 34.2104 0.800293Z" fill="black"/>
<path d="M63.6391 16.6556L63.7138 0.545867H75.9637L75.889 19.2841H80.8936V19.1145L80.9683 19.0297C80.9683 19.0297 80.9683 19.0297 80.9683 18.9449C80.9683 18.9449 80.9683 18.7753 80.9683 18.6905C80.9683 18.097 80.9683 17.5035 80.9683 16.8252L81.043 0.715444L93.3676 0.630656L93.2929 16.6556C93.2929 16.91 93.2929 17.1644 93.2929 17.5035C93.2929 17.7579 93.2929 18.097 93.2929 18.3514C93.1435 23.0147 93.8904 23.5235 90.4545 27.5085C89.0353 29.1195 87.3173 30.2217 85.2259 30.9848C83.1344 31.7479 81.043 32.1719 78.8021 32.1719C78.7274 32.1719 78.6527 32.1719 78.578 32.1719C78.5034 32.1719 78.4287 32.1719 78.354 32.1719C78.2046 32.1719 78.1299 32.1719 77.9805 32.1719C77.8311 32.1719 77.7564 32.1719 77.607 32.1719C74.6192 32.0023 73.2 31.5783 71.4074 30.9C69.3906 30.0522 67.6726 29.0347 66.4028 27.5085C63.191 23.7778 63.7885 23.0147 63.5645 18.3514C63.5645 18.097 63.5645 17.8427 63.5645 17.5035C63.6391 17.1644 63.6391 16.91 63.6391 16.6556Z" fill="black"/>
<path fill-rule="evenodd" clip-rule="evenodd" d="M99.269 31.8328H110.623V18.945L115.179 26.6607C115.328 26.8303 116.001 27.8477 116.449 28.6108C116.523 28.7804 116.598 29.0348 116.748 29.2043C116.748 29.2043 116.748 29.2891 116.822 29.2891V29.3739C116.822 29.3739 116.822 29.4587 116.897 29.4587C117.719 30.8153 118.914 31.8328 120.258 32.3415C124.292 33.8677 129.371 32.1719 129.67 28.4412C129.744 27.5934 129.744 26.7455 129.67 25.9824V0.715508H118.167V14.7056L113.088 5.63322C112.116 3.85267 111.22 1.64818 108.979 0.630719C105.095 -1.06504 99.8666 0.800296 99.5678 4.53098V4.61576L99.269 31.8328Z" fill="black"/>
<path fill-rule="evenodd" clip-rule="evenodd" d="M146.55 11.4836H152.899V21.3191H146.55V11.4836ZM140.051 0.715546H141.097H159.397C162.161 0.715546 164.476 3.42877 164.476 6.82029V25.6433C164.476 29.0348 162.161 31.748 159.397 31.748H141.097H140.051H134.972V25.6433V6.82029V0.715546H140.051Z" fill="black"/>
<path fill-rule="evenodd" clip-rule="evenodd" d="M25.246 68.3764L8.29032 68.4612H7.84215C4.10742 68.122 1.19434 64.3913 1.19434 59.8975V55.2342V50.7404V42.2616C1.19434 42.1768 1.19434 42.1768 1.26903 42.1768H8.29032H15.3116C15.3863 42.1768 15.3863 42.2616 15.3863 42.2616V50.7404V55.2342V57.8626C15.5357 58.6257 16.1332 59.2192 16.8055 59.2192L25.1713 59.304L25.246 68.3764Z" fill="black"/>
<path d="M45.9375 42.0073H31.3721V68.6308H45.9375V42.0073Z" fill="black"/>
<path fill-rule="evenodd" clip-rule="evenodd" d="M81.7158 68.8004H58.5605C55.1245 68.8004 52.2861 65.4088 52.2861 61.2542V49.4687C52.2861 45.314 55.1245 41.9225 58.5605 41.9225H81.7158C85.1517 41.9225 87.9901 45.314 87.9901 49.4687V50.6557H87.4672H86.7203H73.6488H66.1046V53.8776V59.2193H73.6488V53.8776H86.7203H88.0648V61.1694C87.9901 65.4088 85.1517 68.8004 81.7158 68.8004Z" fill="black"/>
<path fill-rule="evenodd" clip-rule="evenodd" d="M114.73 42.2616H128.548V68.8851H114.73V58.2866H108.157V68.8003H94.3384V42.1768H108.157V51.4187H114.73V42.2616Z" fill="black"/>
<path fill-rule="evenodd" clip-rule="evenodd" d="M142.592 68.97H156.186V49.8079H164.328V42.4313H156.186H142.592H133.778V49.8079H142.592V68.97Z" fill="black"/>
<path fill-rule="evenodd" clip-rule="evenodd" d="M4.10775 94.576H10.158V82.5361H13.818V77.8727H10.158H4.10775H0.223633V82.5361H4.10775V94.576Z" fill="black"/>
<path fill-rule="evenodd" clip-rule="evenodd" d="M23.8273 77.7879H20.1673C17.9265 77.7879 16.1338 79.9924 16.1338 82.7056V89.4887C16.1338 92.2019 17.9265 94.4912 20.1673 94.576L23.8273 94.6608C24.0514 94.6608 24.5743 94.6608 24.9477 94.6608H28.0849C28.0849 94.6608 28.0849 94.4064 28.0849 94.3216L28.1596 90.2518H25.5453C24.4249 90.2518 23.4539 89.4887 22.931 88.4712H28.0102V84.2318H22.8563C23.3792 83.0448 24.3502 82.1969 25.5453 82.1969H27.9355V77.8727H24.4249C24.2008 77.7879 24.0514 77.7879 23.8273 77.7879Z" fill="black"/>
<path fill-rule="evenodd" clip-rule="evenodd" d="M38.692 77.7031H34.4344C32.4177 77.7031 30.7744 79.6533 30.7744 82.1121V90.167C30.7744 92.6258 32.4177 94.576 34.4344 94.576H38.692C38.7667 94.576 38.8414 94.576 38.9161 94.576H42.5014V88.7256H37.4222V83.6383H42.5014V77.7879H39.2896C39.0655 77.7879 38.9161 77.7031 38.692 77.7031Z" fill="black"/>
<path fill-rule="evenodd" clip-rule="evenodd" d="M54.8998 78.3815H61.3235V94.6608H54.8998V88.2169H51.912V94.576H45.4883V78.2967H51.912V83.9775H54.8998V78.3815Z" fill="black"/>
<path fill-rule="evenodd" clip-rule="evenodd" d="M64.5352 94.576H70.436V87.8777L72.8262 91.8628C72.9009 91.9476 73.2744 92.4563 73.4985 92.8802C73.5732 92.965 73.5732 93.0498 73.6479 93.1346C74.0961 93.8129 74.6936 94.3216 75.4406 94.6608C77.532 95.4239 80.221 94.576 80.2957 92.6259C80.2957 92.2019 80.2957 91.778 80.2957 91.354V78.2119H74.3201V85.5037L71.7058 80.7555C71.183 79.8229 70.7348 78.6358 69.6144 78.2119C67.5976 77.364 64.8339 78.2967 64.7592 80.2468L64.5352 94.576Z" fill="black"/>
<path fill-rule="evenodd" clip-rule="evenodd" d="M89.1855 83.8927H92.472V89.0648H89.1855V83.8927ZM86.2724 78.4662H95.5345C97.4019 78.4662 98.8958 80.2468 98.8958 82.5361V90.8453C98.8958 93.0498 97.4019 94.9152 95.5345 94.9152H86.2724C84.405 94.9152 82.9111 93.1346 82.9111 90.8453V82.5361C82.9111 80.2468 84.405 78.4662 86.2724 78.4662Z" fill="black"/>
<path fill-rule="evenodd" clip-rule="evenodd" d="M120.407 83.8927H123.694V89.0648H120.407V83.8927ZM117.494 78.4662H126.756C128.624 78.4662 130.117 80.2468 130.117 82.5361V90.8453C130.117 93.0498 128.624 94.9152 126.756 94.9152H117.494C115.627 94.9152 114.133 93.1346 114.133 90.8453V82.5361C114.133 80.2468 115.627 78.4662 117.494 78.4662Z" fill="black"/>
<path fill-rule="evenodd" clip-rule="evenodd" d="M145.505 94.9999H135.272C133.778 94.9999 132.508 92.8802 132.508 90.3366V83.0448C132.508 80.5012 133.778 78.3815 135.272 78.3815H145.505C146.999 78.3815 148.268 80.5012 148.268 83.0448V83.8079H148.044H147.671H141.919H138.558V85.8428V89.1496H141.919V85.8428H147.671H148.268V90.3366C148.268 92.8802 146.999 94.9999 145.505 94.9999Z" fill="black"/>
<path fill-rule="evenodd" clip-rule="evenodd" d="M112.19 94.8303H104.795H104.571C102.928 94.6608 101.658 92.2867 101.658 89.4887V86.6059V83.8079V78.4662V78.3814H104.721H107.783C107.783 78.3814 107.783 78.3814 107.783 78.4662V83.8079V86.6059V89.0647H112.041L112.19 94.8303Z" fill="black"/>
<path fill-rule="evenodd" clip-rule="evenodd" d="M165 78.5511H158.95L157.306 83.6384L155.588 78.5511H153.721H149.538L153.721 88.2169V95H160.817V88.1321L165 78.5511Z" fill="black"/>
</svg>
